<?xml version="1.0"?>
<svg width="374" height="78" xmlns="http://www.w3.org/2000/svg" xmlns:svg="http://www.w3.org/2000/svg">
 <defs>
  <filter color-interpolation-filters="sRGB" filterUnits="userSpaceOnUse" height="77.66" id="filter0_d_612_3241" width="373.16" x="0.08" y="0.08">
   <feFlood flood-opacity="0" result="BackgroundImageFix"/>
   <feColorMatrix in="SourceAlpha" result="hardAlpha" type="matrix" values="0 0 0 0 0 0 0 0 0 0 0 0 0 0 0 0 0 0 127 0"/>
   <feOffset dy="4"/>
   <feGaussianBlur stdDeviation="2"/>
   <feComposite in2="hardAlpha" operator="out"/>
   <feColorMatrix type="matrix" values="0 0 0 0 0 0 0 0 0 0 0 0 0 0 0 0 0 0 0.25 0"/>
   <feBlend in2="BackgroundImageFix"/>
   <feBlend in="SourceGraphic" in2="effect1_dropShadow_612_3241"/>
  </filter>
 </defs>
 <g class="layer">
  <title>Layer 1</title>
  <g filter="url(#filter0_d_612_3241)" id="svg_1">
   <path d="m20.04,49.19c0,0.35 -0.11,0.68 -0.31,0.98c-0.21,0.28 -0.44,0.49 -0.7,0.64c-0.47,-0.33 -1.01,-0.63 -1.63,-0.89c-0.59,-0.27 -1.33,-0.4 -2.21,-0.4c-1.04,0 -1.96,0.24 -2.74,0.7c-0.77,0.47 -1.37,1.15 -1.82,2.05c-0.43,0.88 -0.65,1.96 -0.65,3.25c0,1.96 0.49,3.44 1.46,4.45c0.97,0.99 2.28,1.48 3.92,1.48c0.86,0 1.6,-0.12 2.21,-0.36c0.64,-0.24 1.2,-0.52 1.68,-0.81c0.26,0.16 0.48,0.39 0.65,0.67c0.16,0.28 0.25,0.61 0.25,1.01c0,0.29 -0.09,0.58 -0.25,0.86c-0.17,0.27 -0.45,0.5 -0.84,0.7c-0.38,0.23 -0.91,0.43 -1.6,0.62c-0.67,0.21 -1.51,0.31 -2.52,0.31c-1.62,0 -3.1,-0.33 -4.42,-0.98c-1.31,-0.66 -2.36,-1.64 -3.14,-2.94c-0.77,-1.33 -1.15,-3 -1.15,-5.01c0,-1.95 0.38,-3.58 1.15,-4.9c0.78,-1.35 1.82,-2.36 3.11,-3.03c1.29,-0.69 2.7,-1.03 4.25,-1.03c1.09,0 2.02,0.12 2.8,0.36c0.81,0.24 1.42,0.57 1.85,0.98c0.43,0.39 0.65,0.82 0.65,1.29zm2.8,9.74l0,-2.18l3.56,0l0,2.13c0,0.95 0.25,1.64 0.75,2.07c0.51,0.43 1.21,0.64 2.1,0.64c0.58,0 1.07,-0.05 1.46,-0.17c0.39,-0.13 0.7,-0.25 0.92,-0.36l0,-4.31l3.56,0l0,4.65c0,0.43 -0.08,0.79 -0.25,1.09c-0.15,0.28 -0.42,0.53 -0.81,0.75c-0.53,0.34 -1.21,0.62 -2.05,0.84c-0.84,0.23 -1.79,0.34 -2.85,0.34c-1.29,0 -2.42,-0.2 -3.39,-0.59c-0.95,-0.39 -1.69,-0.99 -2.21,-1.79c-0.53,-0.8 -0.79,-1.84 -0.79,-3.11zm12.35,-0.87l-3.56,0l0,-7.28c0.15,-0.05 0.37,-0.11 0.65,-0.16c0.3,-0.06 0.61,-0.09 0.95,-0.09c0.69,0 1.19,0.12 1.48,0.37c0.32,0.24 0.48,0.68 0.48,1.31l0,5.85zm-8.79,0l-3.56,0l0,-7.28c0.15,-0.05 0.38,-0.11 0.67,-0.16c0.3,-0.06 0.62,-0.09 0.96,-0.09c0.67,0 1.15,0.12 1.45,0.37c0.32,0.24 0.48,0.68 0.48,1.31l0,5.85zm1.01,-9.32l-2.69,-2.66c-0.02,-0.07 -0.04,-0.16 -0.06,-0.25c0,-0.11 0,-0.2 0,-0.25c0,-0.51 0.15,-0.9 0.45,-1.18c0.3,-0.3 0.67,-0.45 1.12,-0.45c0.3,0 0.57,0.06 0.81,0.17c0.26,0.11 0.51,0.31 0.73,0.59l2.52,3.13c-0.06,0.49 -0.23,0.86 -0.53,1.12c-0.28,0.25 -0.6,0.37 -0.95,0.37c-0.3,0 -0.56,-0.05 -0.79,-0.14c-0.2,-0.11 -0.41,-0.26 -0.61,-0.45zm23.67,6.61l0,2.71l-3.56,0l0,-2.6c0,-0.8 -0.23,-1.39 -0.7,-1.76c-0.47,-0.38 -1.08,-0.56 -1.85,-0.56c-0.54,0 -1.03,0.07 -1.48,0.22c-0.45,0.13 -0.85,0.3 -1.21,0.5l0,4.2l-3.55,0l0,-4.5c0,-0.45 0.09,-0.82 0.28,-1.1c0.19,-0.28 0.47,-0.55 0.87,-0.81c0.56,-0.35 1.28,-0.66 2.15,-0.92c0.9,-0.28 1.89,-0.42 2.97,-0.42c1.92,0 3.42,0.43 4.48,1.29c1.06,0.85 1.6,2.11 1.6,3.75zm-12.35,1.34l3.55,0l0,7.28c-0.14,0.04 -0.37,0.09 -0.67,0.14c-0.28,0.06 -0.59,0.09 -0.92,0.09c-0.67,0 -1.17,-0.13 -1.49,-0.37c-0.31,-0.24 -0.47,-0.67 -0.47,-1.29l0,-5.85zm8.79,0l3.56,0l0,7.28c-0.17,0.04 -0.4,0.09 -0.7,0.14c-0.28,0.06 -0.59,0.09 -0.93,0.09c-0.67,0 -1.16,-0.13 -1.48,-0.37c-0.3,-0.24 -0.45,-0.67 -0.45,-1.29l0,-5.85zm12.61,6.83c-1.1,0 -2.12,-0.21 -3.05,-0.64c-0.93,-0.43 -1.69,-1.12 -2.27,-2.07c-0.56,-0.97 -0.84,-2.25 -0.84,-3.84c0,-1.45 0.29,-2.68 0.87,-3.67c0.58,-0.99 1.38,-1.73 2.41,-2.24c1.02,-0.5 2.22,-0.75 3.58,-0.75c0.97,0 1.86,0.13 2.66,0.39c0.82,0.24 1.48,0.52 1.96,0.84c0.34,0.22 0.6,0.48 0.79,0.76c0.2,0.28 0.3,0.63 0.3,1.06l0,8.74l-3.44,0l0,-8.4c-0.26,-0.15 -0.57,-0.28 -0.92,-0.4c-0.34,-0.11 -0.75,-0.16 -1.24,-0.16c-1.02,0 -1.85,0.31 -2.49,0.95c-0.61,0.61 -0.92,1.58 -0.92,2.88c0,1.42 0.3,2.41 0.89,2.97c0.62,0.56 1.38,0.84 2.3,0.84c0.67,0 1.22,-0.11 1.65,-0.34c0.45,-0.24 0.82,-0.51 1.12,-0.81l0.14,2.91c-0.37,0.27 -0.85,0.5 -1.43,0.7c-0.56,0.19 -1.25,0.28 -2.07,0.28zm3,0.51l0,-2.72l3.41,0l0,2.86c0,1.27 -0.3,2.3 -0.89,3.11c-0.58,0.8 -1.37,1.39 -2.38,1.76c-0.99,0.37 -2.11,0.56 -3.36,0.56c-0.95,0 -1.79,-0.09 -2.52,-0.28c-0.73,-0.17 -1.27,-0.36 -1.63,-0.59c-0.61,-0.39 -0.92,-0.91 -0.92,-1.57c0,-0.35 0.07,-0.67 0.22,-0.95c0.15,-0.26 0.33,-0.46 0.54,-0.59c0.46,0.3 1.04,0.56 1.73,0.79c0.71,0.24 1.46,0.36 2.24,0.36c1.12,0 1.99,-0.22 2.61,-0.67c0.63,-0.43 0.95,-1.12 0.95,-2.07zm19.23,-13.72c1.2,0 2.28,0.26 3.25,0.78c0.97,0.52 1.74,1.31 2.3,2.35c0.56,1.03 0.84,2.33 0.84,3.9c0,1.55 -0.3,2.85 -0.9,3.92c-0.58,1.04 -1.4,1.83 -2.46,2.38c-1.05,0.52 -2.28,0.78 -3.7,0.78c-1.08,0 -2.03,-0.14 -2.83,-0.42c-0.8,-0.26 -1.46,-0.56 -1.99,-0.9c-0.39,-0.26 -0.68,-0.54 -0.86,-0.84c-0.19,-0.31 -0.28,-0.69 -0.28,-1.12l0,-9.01l3.52,0l0,8.82c0.25,0.15 0.57,0.29 0.98,0.42c0.41,0.13 0.89,0.19 1.43,0.19c1.05,0 1.89,-0.34 2.52,-1.03c0.64,-0.71 0.95,-1.78 0.95,-3.19c0,-1.46 -0.31,-2.52 -0.95,-3.2c-0.61,-0.67 -1.43,-1 -2.43,-1c-0.66,0 -1.24,0.13 -1.74,0.39c-0.5,0.24 -0.92,0.51 -1.26,0.81l-0.2,-2.86c0.41,-0.28 0.94,-0.54 1.57,-0.78c0.66,-0.26 1.4,-0.39 2.24,-0.39zm-3.08,2.63l-3.55,0l0,-7.14c0.15,-0.06 0.37,-0.1 0.67,-0.14c0.3,-0.06 0.61,-0.08 0.95,-0.08c0.67,0 1.16,0.12 1.46,0.36c0.31,0.22 0.47,0.65 0.47,1.29l0,5.71zm17.65,11.48c-1.85,0 -3.31,-0.36 -4.4,-1.09c-1.08,-0.73 -1.62,-1.8 -1.62,-3.22c0,-1.25 0.39,-2.21 1.18,-2.89c0.8,-0.67 1.96,-1.08 3.47,-1.23l3.83,-0.39l0,-0.48c0,-0.72 -0.26,-1.25 -0.78,-1.56c-0.52,-0.34 -1.24,-0.51 -2.16,-0.51c-0.72,0 -1.43,0.1 -2.12,0.28c-0.69,0.19 -1.31,0.4 -1.85,0.65c-0.21,-0.15 -0.39,-0.36 -0.53,-0.62c-0.14,-0.26 -0.2,-0.53 -0.2,-0.81c0,-0.71 0.37,-1.22 1.12,-1.54c0.52,-0.23 1.13,-0.39 1.82,-0.51c0.71,-0.13 1.42,-0.19 2.13,-0.19c1.83,0 3.28,0.39 4.37,1.17c1.1,0.79 1.65,2.01 1.65,3.67l0,6.47c0,0.45 -0.11,0.8 -0.34,1.06c-0.2,0.27 -0.48,0.5 -0.84,0.7c-0.52,0.3 -1.18,0.55 -1.99,0.73c-0.8,0.21 -1.71,0.31 -2.74,0.31zm0,-2.69c0.54,0 1.04,-0.05 1.48,-0.17c0.45,-0.11 0.78,-0.23 0.98,-0.36l0,-3.11l-2.71,0.25c-0.73,0.06 -1.3,0.23 -1.71,0.51c-0.39,0.26 -0.59,0.65 -0.59,1.17c0,0.53 0.21,0.95 0.62,1.26c0.41,0.3 1.05,0.45 1.93,0.45zm2.13,6.08c0,0.56 -0.19,1.02 -0.56,1.37c-0.36,0.37 -0.84,0.56 -1.46,0.56c-0.58,0 -1.05,-0.19 -1.43,-0.56c-0.35,-0.35 -0.53,-0.81 -0.53,-1.37c0,-0.56 0.18,-1.03 0.53,-1.4c0.38,-0.36 0.85,-0.53 1.43,-0.53c0.62,0 1.1,0.17 1.46,0.53c0.37,0.37 0.56,0.84 0.56,1.4zm19.61,-12.46l0,2.71l-3.56,0l0,-2.6c0,-0.8 -0.23,-1.39 -0.69,-1.76c-0.47,-0.38 -1.09,-0.56 -1.85,-0.56c-0.54,0 -1.04,0.07 -1.49,0.22c-0.44,0.13 -0.85,0.3 -1.2,0.5l0,4.2l-3.56,0l0,-4.5c0,-0.45 0.1,-0.82 0.28,-1.1c0.19,-0.28 0.48,-0.55 0.87,-0.81c0.56,-0.35 1.28,-0.66 2.16,-0.92c0.89,-0.28 1.88,-0.42 2.96,-0.42c1.93,0 3.42,0.43 4.49,1.29c1.06,0.85 1.59,2.11 1.59,3.75zm-12.35,1.34l3.56,0l0,7.28c-0.15,0.04 -0.38,0.09 -0.67,0.14c-0.28,0.06 -0.59,0.09 -0.93,0.09c-0.67,0 -1.16,-0.13 -1.48,-0.37c-0.32,-0.24 -0.48,-0.67 -0.48,-1.29l0,-5.85zm8.79,0l3.56,0l0,7.28c-0.17,0.04 -0.4,0.09 -0.7,0.14c-0.28,0.06 -0.59,0.09 -0.92,0.09c-0.67,0 -1.17,-0.13 -1.49,-0.37c-0.3,-0.24 -0.45,-0.67 -0.45,-1.29l0,-5.85zm12.76,-0.08l3.5,0l0,3.27c0,0.6 0.19,1.03 0.56,1.29c0.37,0.26 0.88,0.39 1.51,0.39c0.3,0 0.62,-0.03 0.96,-0.11c0.35,-0.09 0.65,-0.19 0.89,-0.31c0.15,0.15 0.27,0.34 0.37,0.56c0.11,0.23 0.16,0.48 0.16,0.76c0,0.56 -0.25,1.03 -0.75,1.4c-0.51,0.35 -1.32,0.53 -2.44,0.53c-1.47,0 -2.64,-0.32 -3.5,-0.98c-0.84,-0.67 -1.26,-1.77 -1.26,-3.3l0,-3.5zm2.13,-2.83l0,-2.77l5.49,0c0.09,0.13 0.17,0.32 0.25,0.56c0.07,0.24 0.11,0.51 0.11,0.81c0,0.49 -0.11,0.84 -0.34,1.06c-0.2,0.23 -0.5,0.34 -0.89,0.34l-4.62,0zm1.37,3.58l-3.5,0l0,-10.1c0.15,-0.04 0.37,-0.09 0.64,-0.14c0.3,-0.06 0.62,-0.09 0.96,-0.09c0.65,0 1.13,0.12 1.43,0.37c0.31,0.24 0.47,0.67 0.47,1.28l0,8.68zm10.77,-3.41l0,3.78l-3.55,0l0,-4.06c0,-0.51 0.11,-0.92 0.33,-1.23c0.23,-0.34 0.55,-0.64 0.98,-0.9c0.58,-0.37 1.3,-0.66 2.16,-0.87c0.86,-0.22 1.77,-0.33 2.74,-0.33c1.78,0 2.66,0.55 2.66,1.65c0,0.26 -0.03,0.51 -0.11,0.75c-0.07,0.23 -0.17,0.41 -0.28,0.56c-0.18,-0.03 -0.42,-0.06 -0.7,-0.08c-0.28,-0.04 -0.57,-0.06 -0.87,-0.06c-0.65,0 -1.27,0.08 -1.87,0.23c-0.58,0.15 -1.07,0.33 -1.49,0.56zm-3.55,2.66l3.55,0.17l0,7.19c-0.14,0.04 -0.37,0.09 -0.67,0.14c-0.28,0.06 -0.59,0.09 -0.92,0.09c-0.67,0 -1.17,-0.13 -1.49,-0.37c-0.31,-0.24 -0.47,-0.67 -0.47,-1.29l0,-5.93zm12.31,2.55l-0.14,-2.5l7.42,-1.09c-0.05,-0.69 -0.32,-1.29 -0.81,-1.79c-0.48,-0.52 -1.18,-0.78 -2.07,-0.78c-0.95,0 -1.74,0.32 -2.35,0.98c-0.62,0.65 -0.94,1.58 -0.95,2.8l0.08,1.51c0.15,1.16 0.6,2.01 1.34,2.57c0.77,0.55 1.72,0.82 2.86,0.82c0.78,0 1.51,-0.12 2.18,-0.34c0.67,-0.24 1.22,-0.49 1.63,-0.76c0.24,0.15 0.44,0.36 0.61,0.62c0.17,0.26 0.26,0.54 0.26,0.84c0,0.49 -0.22,0.91 -0.65,1.29c-0.43,0.35 -1.02,0.62 -1.76,0.81c-0.73,0.19 -1.56,0.28 -2.49,0.28c-1.46,0 -2.75,-0.27 -3.87,-0.81c-1.1,-0.54 -1.97,-1.35 -2.6,-2.41c-0.62,-1.08 -0.93,-2.41 -0.93,-3.98c0,-1.15 0.18,-2.16 0.53,-3.02c0.36,-0.88 0.84,-1.6 1.46,-2.16c0.62,-0.57 1.32,-1 2.1,-1.28c0.8,-0.3 1.65,-0.45 2.55,-0.45c1.23,0 2.31,0.25 3.25,0.75c0.93,0.51 1.66,1.2 2.18,2.08c0.52,0.87 0.78,1.88 0.78,3.02c0,0.52 -0.13,0.91 -0.42,1.18c-0.26,0.26 -0.63,0.43 -1.12,0.5l-9.07,1.32zm5.85,-10.84l-1.45,-1.74c-0.45,0.53 -0.86,0.98 -1.23,1.38c-0.36,0.39 -0.73,0.82 -1.12,1.28c-0.54,-0.01 -0.98,-0.15 -1.32,-0.42c-0.32,-0.26 -0.47,-0.57 -0.47,-0.95c0,-0.3 0.07,-0.55 0.22,-0.75c0.17,-0.23 0.4,-0.5 0.7,-0.82l1.32,-1.37c0.29,-0.28 0.59,-0.5 0.89,-0.67c0.32,-0.17 0.67,-0.25 1.06,-0.25c0.4,0 0.75,0.07 1.07,0.22c0.32,0.15 0.65,0.45 1.01,0.9l2.15,2.63c0,0.37 -0.11,0.71 -0.33,1.01c-0.23,0.28 -0.57,0.42 -1.04,0.42c-0.3,0 -0.56,-0.08 -0.78,-0.23c-0.21,-0.16 -0.43,-0.38 -0.68,-0.64zm19.89,7.03l0,2.71l-3.56,0l0,-2.6c0,-0.8 -0.23,-1.39 -0.7,-1.76c-0.46,-0.38 -1.08,-0.56 -1.85,-0.56c-0.54,0 -1.03,0.07 -1.48,0.22c-0.45,0.13 -0.85,0.3 -1.2,0.5l0,4.2l-3.56,0l0,-4.5c0,-0.45 0.09,-0.82 0.28,-1.1c0.19,-0.28 0.48,-0.55 0.87,-0.81c0.56,-0.35 1.28,-0.66 2.15,-0.92c0.9,-0.28 1.89,-0.42 2.97,-0.42c1.93,0 3.42,0.43 4.48,1.29c1.07,0.85 1.6,2.11 1.6,3.75zm-12.35,1.34l3.56,0l0,7.28c-0.15,0.04 -0.38,0.09 -0.67,0.14c-0.28,0.06 -0.59,0.09 -0.93,0.09c-0.67,0 -1.16,-0.13 -1.48,-0.37c-0.32,-0.24 -0.48,-0.67 -0.48,-1.29l0,-5.85zm8.79,0l3.56,0l0,7.28c-0.17,0.04 -0.4,0.09 -0.7,0.14c-0.28,0.06 -0.59,0.09 -0.93,0.09c-0.67,0 -1.16,-0.13 -1.48,-0.37c-0.3,-0.24 -0.45,-0.67 -0.45,-1.29l0,-5.85zm24.35,-1.85l0,3.2l-3.55,0l0,-2.78c0,-0.74 -0.22,-1.28 -0.65,-1.62c-0.41,-0.34 -0.95,-0.5 -1.62,-0.5c-0.45,0 -0.88,0.07 -1.29,0.22c-0.39,0.15 -0.72,0.3 -0.98,0.45l0,4.23l-3.56,0l0,-4.48c0,-0.43 0.1,-0.79 0.28,-1.07c0.19,-0.3 0.48,-0.58 0.87,-0.84c0.56,-0.37 1.27,-0.69 2.13,-0.95c0.88,-0.26 1.76,-0.39 2.66,-0.39c0.91,0 1.75,0.14 2.52,0.42c0.76,0.28 1.41,0.7 1.93,1.26c0.13,0.13 0.25,0.25 0.37,0.36c0.13,0.11 0.23,0.24 0.3,0.39c0.17,0.27 0.31,0.58 0.42,0.96c0.12,0.35 0.17,0.73 0.17,1.14zm8.12,0.28l0,2.92l-3.55,0l0,-2.78c0,-0.74 -0.21,-1.28 -0.62,-1.62c-0.41,-0.34 -0.95,-0.5 -1.62,-0.5c-0.51,0 -0.98,0.1 -1.43,0.3c-0.45,0.21 -0.85,0.48 -1.21,0.82l-1.76,-2.19c0.56,-0.46 1.23,-0.88 2.02,-1.23c0.8,-0.35 1.75,-0.53 2.85,-0.53c0.97,0 1.86,0.17 2.66,0.5c0.8,0.34 1.45,0.86 1.93,1.57c0.49,0.69 0.73,1.61 0.73,2.74zm-19.77,1.57l3.56,0l0,7.28c-0.15,0.04 -0.37,0.09 -0.67,0.14c-0.28,0.06 -0.59,0.09 -0.93,0.09c-0.67,0 -1.16,-0.13 -1.48,-0.37c-0.32,-0.24 -0.48,-0.67 -0.48,-1.29l0,-5.85zm8.1,0l3.55,0l0,7.28c-0.15,0.04 -0.37,0.09 -0.67,0.14c-0.28,0.06 -0.59,0.09 -0.92,0.09c-0.68,0 -1.17,-0.13 -1.49,-0.37c-0.32,-0.24 -0.47,-0.67 -0.47,-1.29l0,-5.85zm8.12,0l3.55,0l0,7.28c-0.17,0.04 -0.4,0.09 -0.7,0.14c-0.28,0.06 -0.59,0.09 -0.92,0.09c-0.67,0 -1.17,-0.13 -1.49,-0.37c-0.29,-0.24 -0.44,-0.67 -0.44,-1.29l0,-5.85zm20.18,0.67c0,1.44 -0.28,2.69 -0.86,3.76c-0.56,1.04 -1.36,1.85 -2.38,2.43c-1.03,0.58 -2.24,0.87 -3.64,0.87c-1.39,0 -2.6,-0.28 -3.64,-0.84c-1.03,-0.58 -1.82,-1.4 -2.38,-2.46c-0.56,-1.07 -0.84,-2.32 -0.84,-3.76c0,-1.45 0.28,-2.7 0.84,-3.75c0.57,-1.04 1.38,-1.86 2.4,-2.43c1.05,-0.58 2.26,-0.87 3.64,-0.87c1.37,0 2.56,0.3 3.59,0.89c1.03,0.58 1.83,1.39 2.41,2.44c0.58,1.05 0.86,2.29 0.86,3.72zm-6.88,-4.22c-0.99,0 -1.79,0.37 -2.38,1.12c-0.58,0.74 -0.87,1.78 -0.87,3.1c0,1.35 0.29,2.39 0.87,3.14c0.58,0.73 1.37,1.09 2.38,1.09c1.02,0 1.82,-0.37 2.38,-1.12c0.57,-0.74 0.86,-1.78 0.86,-3.11c0,-1.32 -0.29,-2.36 -0.86,-3.1c-0.58,-0.75 -1.38,-1.12 -2.38,-1.12zm1.96,14.67c0,0.56 -0.19,1.02 -0.56,1.37c-0.36,0.37 -0.84,0.56 -1.46,0.56c-0.58,0 -1.05,-0.19 -1.43,-0.56c-0.35,-0.35 -0.53,-0.81 -0.53,-1.37c0,-0.56 0.18,-1.03 0.53,-1.4c0.38,-0.36 0.85,-0.53 1.43,-0.53c0.62,0 1.1,0.17 1.46,0.53c0.37,0.37 0.56,0.84 0.56,1.4zm7.65,-21.03c0,-0.56 0.19,-1.03 0.56,-1.4c0.39,-0.39 0.89,-0.59 1.48,-0.59c0.6,0 1.09,0.2 1.46,0.59c0.39,0.37 0.59,0.84 0.59,1.4c0,0.56 -0.2,1.04 -0.59,1.43c-0.37,0.37 -0.86,0.56 -1.46,0.56c-0.59,0 -1.09,-0.19 -1.48,-0.56c-0.37,-0.39 -0.56,-0.87 -0.56,-1.43zm0.28,9.83l3.53,0l0,7.36c-0.15,0.04 -0.38,0.09 -0.68,0.14c-0.28,0.06 -0.58,0.09 -0.92,0.09c-0.67,0 -1.17,-0.13 -1.48,-0.37c-0.3,-0.24 -0.45,-0.67 -0.45,-1.29l0,-5.93zm3.53,1.82l-3.53,0l0,-7.59c0.15,-0.04 0.36,-0.08 0.64,-0.14c0.3,-0.06 0.62,-0.08 0.95,-0.08c0.68,0 1.16,0.12 1.46,0.36c0.32,0.22 0.48,0.65 0.48,1.29l0,6.16zm21.61,-3.08l0,2.71l-3.55,0l0,-2.6c0,-0.8 -0.24,-1.39 -0.71,-1.76c-0.46,-0.38 -1.08,-0.56 -1.84,-0.56c-0.54,0 -1.04,0.07 -1.49,0.22c-0.45,0.13 -0.85,0.3 -1.2,0.5l0,4.2l-3.56,0l0,-4.5c0,-0.45 0.1,-0.82 0.28,-1.1c0.19,-0.28 0.48,-0.55 0.87,-0.81c0.56,-0.35 1.28,-0.66 2.16,-0.92c0.89,-0.28 1.88,-0.42 2.96,-0.42c1.93,0 3.42,0.43 4.49,1.29c1.06,0.85 1.59,2.11 1.59,3.75zm-12.35,1.34l3.56,0l0,7.28c-0.15,0.04 -0.38,0.09 -0.67,0.14c-0.28,0.06 -0.59,0.09 -0.93,0.09c-0.67,0 -1.16,-0.13 -1.48,-0.37c-0.32,-0.24 -0.48,-0.67 -0.48,-1.29l0,-5.85zm8.8,0l3.55,0l0,7.28c-0.17,0.04 -0.4,0.09 -0.7,0.14c-0.28,0.06 -0.59,0.09 -0.92,0.09c-0.68,0 -1.17,-0.13 -1.49,-0.37c-0.3,-0.24 -0.44,-0.67 -0.44,-1.29l0,-5.85zm8.69,2.47l-0.15,-2.5l7.43,-1.09c-0.06,-0.69 -0.33,-1.29 -0.82,-1.79c-0.48,-0.52 -1.17,-0.78 -2.07,-0.78c-0.95,0 -1.73,0.32 -2.35,0.98c-0.62,0.65 -0.93,1.58 -0.95,2.8l0.08,1.51c0.15,1.16 0.6,2.01 1.35,2.57c0.76,0.55 1.71,0.82 2.85,0.82c0.79,0 1.51,-0.12 2.18,-0.34c0.68,-0.24 1.22,-0.49 1.63,-0.76c0.24,0.15 0.45,0.36 0.61,0.62c0.17,0.26 0.26,0.54 0.26,0.84c0,0.49 -0.22,0.91 -0.65,1.29c-0.43,0.35 -1.01,0.62 -1.76,0.81c-0.73,0.19 -1.56,0.28 -2.49,0.28c-1.46,0 -2.75,-0.27 -3.87,-0.81c-1.1,-0.54 -1.97,-1.35 -2.6,-2.41c-0.62,-1.08 -0.93,-2.41 -0.93,-3.98c0,-1.15 0.18,-2.16 0.54,-3.02c0.35,-0.88 0.84,-1.6 1.45,-2.16c0.62,-0.57 1.32,-1 2.1,-1.28c0.81,-0.3 1.65,-0.45 2.55,-0.45c1.23,0 2.32,0.25 3.25,0.75c0.93,0.51 1.66,1.2 2.18,2.08c0.53,0.87 0.79,1.88 0.79,3.02c0,0.52 -0.14,0.91 -0.42,1.18c-0.26,0.26 -0.64,0.43 -1.12,0.5l-9.07,1.32zm4.11,-15.99c0.62,0 1.2,0.1 1.74,0.31c0.54,0.2 0.98,0.51 1.31,0.92c0.36,0.41 0.54,0.94 0.54,1.6c0,0.82 -0.27,1.42 -0.79,1.82c-0.5,0.37 -1.09,0.58 -1.76,0.64l0,0.64c-0.1,0.06 -0.24,0.12 -0.45,0.17c-0.21,0.06 -0.45,0.09 -0.73,0.09c-0.46,0 -0.8,-0.06 -1.01,-0.17c-0.18,-0.11 -0.28,-0.26 -0.28,-0.45l0,-0.92c0,-0.38 0.1,-0.63 0.28,-0.76c0.19,-0.15 0.42,-0.22 0.7,-0.22l0.34,0c0.69,0 1.03,-0.27 1.03,-0.79c0,-0.22 -0.1,-0.41 -0.3,-0.56c-0.19,-0.17 -0.51,-0.25 -0.95,-0.25c-0.36,0 -0.69,0.05 -0.99,0.14c-0.29,0.09 -0.56,0.2 -0.78,0.31c-0.17,-0.11 -0.32,-0.25 -0.45,-0.42c-0.11,-0.19 -0.16,-0.4 -0.16,-0.65c0,-0.48 0.27,-0.85 0.83,-1.09c0.56,-0.24 1.19,-0.36 1.88,-0.36zm22.38,14.19c0,1.44 -0.29,2.69 -0.87,3.76c-0.56,1.04 -1.35,1.85 -2.38,2.43c-1.03,0.58 -2.24,0.87 -3.64,0.87c-1.38,0 -2.59,-0.28 -3.64,-0.84c-1.03,-0.58 -1.82,-1.4 -2.38,-2.46c-0.56,-1.07 -0.84,-2.32 -0.84,-3.76c0,-1.45 0.28,-2.7 0.84,-3.75c0.58,-1.04 1.38,-1.86 2.41,-2.43c1.04,-0.58 2.26,-0.87 3.64,-0.87c1.36,0 2.55,0.3 3.58,0.89c1.03,0.58 1.83,1.39 2.41,2.44c0.58,1.05 0.87,2.29 0.87,3.72zm-6.89,-4.22c-0.99,0 -1.78,0.37 -2.38,1.12c-0.58,0.74 -0.87,1.78 -0.87,3.1c0,1.35 0.29,2.39 0.87,3.14c0.58,0.73 1.37,1.09 2.38,1.09c1.03,0 1.82,-0.37 2.38,-1.12c0.58,-0.74 0.87,-1.78 0.87,-3.11c0,-1.32 -0.29,-2.36 -0.87,-3.1c-0.58,-0.75 -1.37,-1.12 -2.38,-1.12zm28.57,-3.95l-6.88,0c-0.06,-0.11 -0.13,-0.26 -0.2,-0.45c-0.07,-0.19 -0.11,-0.39 -0.11,-0.62c0,-0.72 0.32,-1.09 0.98,-1.09l6.91,0c0.06,0.11 0.12,0.26 0.17,0.45c0.08,0.19 0.11,0.38 0.11,0.59c0,0.74 -0.32,1.12 -0.98,1.12zm-4.45,11.84l0,-8.73l3.53,-0.03l0,9.15c0,0.41 -0.09,0.76 -0.28,1.04c-0.17,0.28 -0.44,0.53 -0.81,0.76c-0.47,0.29 -1.09,0.57 -1.88,0.81c-0.76,0.26 -1.65,0.39 -2.66,0.39c-1.49,0 -2.79,-0.25 -3.89,-0.76c-1.08,-0.52 -1.92,-1.29 -2.52,-2.32c-0.6,-1.05 -0.9,-2.35 -0.9,-3.92c0,-1.64 0.3,-2.98 0.9,-4c0.6,-1.05 1.41,-1.82 2.44,-2.33c1.04,-0.52 2.19,-0.78 3.44,-0.78c0.69,0 1.32,0.08 1.88,0.25c0.57,0.17 1.03,0.37 1.37,0.62l0,2.99c-0.3,-0.26 -0.68,-0.49 -1.15,-0.7c-0.47,-0.22 -1.01,-0.33 -1.62,-0.33c-0.71,0 -1.35,0.15 -1.91,0.44c-0.54,0.3 -0.97,0.77 -1.29,1.4c-0.31,0.62 -0.47,1.44 -0.47,2.47c0,1.42 0.32,2.46 0.98,3.13c0.67,0.66 1.58,0.98 2.71,0.98c0.49,0 0.9,-0.05 1.24,-0.16c0.35,-0.12 0.65,-0.24 0.89,-0.37zm3.53,-8.01l-3.56,0l0,-7.67c0.17,-0.05 0.4,-0.1 0.68,-0.14c0.29,-0.05 0.61,-0.08 0.95,-0.08c0.67,0 1.15,0.12 1.45,0.36c0.32,0.23 0.48,0.66 0.48,1.29l0,6.24zm3.73,5.91l0,-2.18l3.56,0l0,2.13c0,0.95 0.25,1.64 0.75,2.07c0.51,0.43 1.21,0.64 2.1,0.64c0.58,0 1.07,-0.05 1.46,-0.17c0.39,-0.13 0.7,-0.25 0.92,-0.36l0,-4.31l3.56,0l0,4.65c0,0.43 -0.08,0.79 -0.25,1.09c-0.15,0.28 -0.42,0.53 -0.81,0.75c-0.53,0.34 -1.21,0.62 -2.05,0.84c-0.84,0.23 -1.79,0.34 -2.85,0.34c-1.29,0 -2.42,-0.2 -3.39,-0.59c-0.95,-0.39 -1.69,-0.99 -2.21,-1.79c-0.53,-0.8 -0.79,-1.84 -0.79,-3.11zm12.35,-0.87l-3.56,0l0,-7.28c0.15,-0.05 0.37,-0.11 0.65,-0.16c0.3,-0.06 0.61,-0.09 0.95,-0.09c0.69,0 1.18,0.12 1.48,0.37c0.32,0.24 0.48,0.68 0.48,1.31l0,5.85zm-8.79,0l-3.56,0l0,-7.28c0.15,-0.05 0.37,-0.11 0.67,-0.16c0.3,-0.06 0.62,-0.09 0.96,-0.09c0.67,0 1.15,0.12 1.45,0.37c0.32,0.24 0.48,0.68 0.48,1.31l0,5.85zm8.73,-2.94l-0.53,-0.02c-0.11,-0.15 -0.2,-0.45 -0.28,-0.9c-0.07,-0.47 -0.11,-0.91 -0.11,-1.32c0.67,0 1.23,-0.19 1.68,-0.58c0.45,-0.4 0.67,-1.08 0.67,-2.05l0,-0.95c0.21,-0.11 0.41,-0.2 0.62,-0.25c0.2,-0.06 0.46,-0.09 0.75,-0.09c0.43,0 0.81,0.12 1.12,0.34c0.32,0.22 0.48,0.6 0.48,1.12l0,0.25c0,0.97 -0.21,1.79 -0.62,2.47c-0.41,0.67 -0.95,1.17 -1.62,1.51c-0.65,0.32 -1.37,0.47 -2.16,0.47zm18.97,2.24c0,1.44 -0.29,2.69 -0.87,3.76c-0.56,1.04 -1.35,1.85 -2.38,2.43c-1.02,0.58 -2.24,0.87 -3.64,0.87c-1.38,0 -2.59,-0.28 -3.64,-0.84c-1.02,-0.58 -1.82,-1.4 -2.38,-2.46c-0.56,-1.07 -0.84,-2.32 -0.84,-3.76c0,-1.45 0.28,-2.7 0.84,-3.75c0.58,-1.04 1.39,-1.86 2.41,-2.43c1.05,-0.58 2.26,-0.87 3.64,-0.87c1.36,0 2.56,0.3 3.59,0.89c1.02,0.58 1.82,1.39 2.4,2.44c0.58,1.05 0.87,2.29 0.87,3.72zm-6.89,-4.22c-0.99,0 -1.78,0.37 -2.38,1.12c-0.57,0.74 -0.86,1.78 -0.86,3.1c0,1.35 0.29,2.39 0.86,3.14c0.58,0.73 1.38,1.09 2.38,1.09c1.03,0 1.82,-0.37 2.38,-1.12c0.58,-0.74 0.87,-1.78 0.87,-3.11c0,-1.32 -0.29,-2.36 -0.87,-3.1c-0.57,-0.75 -1.37,-1.12 -2.38,-1.12zm4.62,1.98l-0.53,-0.02c-0.11,-0.15 -0.2,-0.45 -0.28,-0.9c-0.07,-0.47 -0.11,-0.91 -0.11,-1.32c0.67,0 1.23,-0.19 1.68,-0.58c0.45,-0.4 0.67,-1.08 0.67,-2.05l0,-0.95c0.21,-0.11 0.41,-0.2 0.62,-0.25c0.2,-0.06 0.45,-0.09 0.75,-0.09c0.43,0 0.81,0.12 1.12,0.34c0.32,0.22 0.48,0.6 0.48,1.12l0,0.25c0,0.97 -0.21,1.79 -0.62,2.47c-0.41,0.67 -0.95,1.17 -1.62,1.51c-0.65,0.32 -1.37,0.47 -2.16,0.47zm-5.57,-6.38l-2.69,-2.66c-0.01,-0.07 -0.03,-0.16 -0.05,-0.25c0,-0.11 0,-0.2 0,-0.25c0,-0.51 0.15,-0.9 0.45,-1.18c0.29,-0.3 0.67,-0.45 1.12,-0.45c0.29,0 0.56,0.06 0.81,0.17c0.26,0.11 0.5,0.31 0.73,0.59l2.52,3.13c-0.06,0.49 -0.24,0.86 -0.54,1.12c-0.28,0.25 -0.59,0.37 -0.95,0.37c-0.3,0 -0.56,-0.05 -0.78,-0.14c-0.21,-0.11 -0.41,-0.26 -0.62,-0.45zm23.9,6.61l0,2.71l-3.55,0l0,-2.6c0,-0.8 -0.24,-1.39 -0.7,-1.76c-0.47,-0.38 -1.09,-0.56 -1.85,-0.56c-0.54,0 -1.04,0.07 -1.49,0.22c-0.44,0.13 -0.85,0.3 -1.2,0.5l0,4.2l-3.56,0l0,-4.5c0,-0.45 0.1,-0.82 0.28,-1.1c0.19,-0.28 0.48,-0.55 0.87,-0.81c0.56,-0.35 1.28,-0.66 2.16,-0.92c0.89,-0.28 1.88,-0.42 2.97,-0.42c1.92,0 3.41,0.43 4.48,1.29c1.06,0.85 1.59,2.11 1.59,3.75zm-12.35,1.34l3.56,0l0,7.28c-0.15,0.04 -0.37,0.09 -0.67,0.14c-0.28,0.06 -0.59,0.09 -0.93,0.09c-0.67,0 -1.16,-0.13 -1.48,-0.37c-0.32,-0.24 -0.48,-0.67 -0.48,-1.29l0,-5.85zm8.8,0l3.55,0l0,7.28c-0.17,0.04 -0.4,0.09 -0.7,0.14c-0.28,0.06 -0.59,0.09 -0.92,0.09c-0.67,0 -1.17,-0.13 -1.49,-0.37c-0.29,-0.24 -0.44,-0.67 -0.44,-1.29l0,-5.85zm12.61,6.83c-1.1,0 -2.12,-0.21 -3.06,-0.64c-0.93,-0.43 -1.68,-1.12 -2.26,-2.07c-0.56,-0.97 -0.84,-2.25 -0.84,-3.84c0,-1.45 0.29,-2.68 0.87,-3.67c0.57,-0.99 1.38,-1.73 2.4,-2.24c1.03,-0.5 2.22,-0.75 3.59,-0.75c0.97,0 1.85,0.13 2.66,0.39c0.82,0.24 1.47,0.52 1.96,0.84c0.33,0.22 0.59,0.48 0.78,0.76c0.21,0.28 0.31,0.63 0.31,1.06l0,8.74l-3.44,0l0,-8.4c-0.27,-0.15 -0.57,-0.28 -0.93,-0.4c-0.33,-0.11 -0.75,-0.16 -1.23,-0.16c-1.03,0 -1.86,0.31 -2.49,0.95c-0.62,0.61 -0.93,1.58 -0.93,2.88c0,1.42 0.3,2.41 0.9,2.97c0.62,0.56 1.38,0.84 2.3,0.84c0.67,0 1.22,-0.11 1.65,-0.34c0.44,-0.24 0.82,-0.51 1.12,-0.81l0.14,2.91c-0.38,0.27 -0.85,0.5 -1.43,0.7c-0.56,0.19 -1.25,0.28 -2.07,0.28zm2.99,0.51l0,-2.72l3.42,0l0,2.86c0,1.27 -0.3,2.3 -0.9,3.11c-0.58,0.8 -1.37,1.39 -2.38,1.76c-0.99,0.37 -2.11,0.56 -3.36,0.56c-0.95,0 -1.79,-0.09 -2.52,-0.28c-0.72,-0.17 -1.27,-0.36 -1.62,-0.59c-0.62,-0.39 -0.92,-0.91 -0.92,-1.57c0,-0.35 0.07,-0.67 0.22,-0.95c0.15,-0.26 0.33,-0.46 0.53,-0.59c0.47,0.3 1.05,0.56 1.74,0.79c0.71,0.24 1.45,0.36 2.24,0.36c1.12,0 1.98,-0.22 2.6,-0.67c0.64,-0.43 0.95,-1.12 0.95,-2.07z" fill="#EF5222" id="svg_2"/>
  </g>
  <text fill="#007f00" font-family="Helvetica" font-size="30" font-style="normal" font-weight="bold" id="svg_3" letter-spacing="0" stroke="#000000" stroke-width="0" text-anchor="middle" textLength="0" word-spacing="0" x="141" xml:space="preserve" y="33">ĐINH HỒNG KÔNG</text>
 </g>
</svg>